<svg xmlns="http://www.w3.org/2000/svg" viewBox="0 0 420 280" role="img" aria-labelledby="title desc">
  <title id="title">Brand Mark</title>
  <desc id="desc">Generated symbolic mark inspired by educational real estate networking themes.</desc>
  <defs>
    <linearGradient id="sun" x1="0" y1="0" x2="0" y2="1">
      <stop offset="0%" stop-color="#ffd46e"/>
      <stop offset="100%" stop-color="#f2a33f"/>
    </linearGradient>
    <linearGradient id="city" x1="0" y1="0" x2="0" y2="1">
      <stop offset="0%" stop-color="#49a1d8"/>
      <stop offset="100%" stop-color="#1e5f87"/>
    </linearGradient>
  </defs>
  <circle cx="210" cy="98" r="76" fill="url(#sun)" opacity="0.9"/>
  <g fill="url(#city)">
    <rect x="120" y="95" width="20" height="52"/>
    <rect x="145" y="80" width="24" height="67"/>
    <rect x="174" y="72" width="22" height="75"/>
    <rect x="202" y="60" width="24" height="87"/>
    <rect x="232" y="72" width="22" height="75"/>
    <rect x="260" y="82" width="24" height="65"/>
    <rect x="288" y="95" width="22" height="52"/>
  </g>
  <ellipse cx="210" cy="160" rx="52" ry="24" fill="#e6c39a"/>
  <circle cx="210" cy="130" r="18" fill="#f0c08a"/>
  <rect x="196" y="150" width="28" height="24" rx="10" fill="#cc8d56"/>
  <path d="M108 178 Q210 205 312 178" fill="none" stroke="#2b221f" stroke-width="6" stroke-linecap="round"/>
  <text x="210" y="222" text-anchor="middle" font-family="Georgia, serif" font-size="46" fill="#1c1a1a" font-weight="700">REALTY GURUKUL</text>
  <text x="210" y="248" text-anchor="middle" font-family="Arial, sans-serif" font-size="16" fill="#2d2d2d">Where Real Estate Minds Are Built</text>
</svg>
